<?xml version="1.0" encoding="utf-8"?>
<!-- Generator: Adobe Illustrator 23.0.3, SVG Export Plug-In . SVG Version: 6.00 Build 0)  -->
<svg version="1.1" id="Layer_1" xmlns="http://www.w3.org/2000/svg" xmlns:xlink="http://www.w3.org/1999/xlink" x="0px" y="0px"
	 viewBox="0 0 1000 623" style="enable-background:new 0 0 1000 623;" xml:space="preserve">
<style type="text/css">
	.st0{clip-path:url(#SVGID_4_);}
	.st1{fill:#020F0F;}
	.st2{clip-path:url(#SVGID_6_);}
	.st3{fill:#D08E83;}
	.st4{fill:#ECB4AA;}
	.st5{clip-path:url(#SVGID_8_);}
	.st6{clip-path:url(#SVGID_10_);}
	.st7{clip-path:url(#SVGID_12_);}
	.st8{fill:#4AA1D6;}
	.st9{fill:#285A82;}
	.st10{clip-path:url(#SVGID_14_);fill:#285A82;}
	.st11{clip-path:url(#SVGID_16_);fill:#ECB4AA;}
	.st12{clip-path:url(#SVGID_18_);fill:#ECB4AA;}
	.st13{clip-path:url(#SVGID_20_);fill:#ECB4AA;}
	.st14{clip-path:url(#SVGID_22_);fill:#ECB4AA;}
	.st15{clip-path:url(#SVGID_24_);fill:#ECB4AA;}
	.st16{clip-path:url(#SVGID_26_);}
	.st17{clip-path:url(#SVGID_28_);}
	.st18{clip-path:url(#SVGID_30_);fill:#285A82;}
	.st19{clip-path:url(#SVGID_32_);fill:#ECB4AA;}
	.st20{clip-path:url(#SVGID_34_);fill:#ECB4AA;}
	.st21{clip-path:url(#SVGID_36_);fill:#ECB4AA;}
	.st22{clip-path:url(#SVGID_38_);fill:#ECB4AA;}
	.st23{clip-path:url(#SVGID_40_);fill:#ECB4AA;}
	.st24{clip-path:url(#SVGID_42_);fill:#942E41;}
	.st25{clip-path:url(#SVGID_44_);fill:#ECB4AA;}
	.st26{clip-path:url(#SVGID_46_);fill:#ECB4AA;}
	.st27{clip-path:url(#SVGID_48_);fill:#272425;}
	.st28{clip-path:url(#SVGID_50_);fill:#272425;}
	.st29{clip-path:url(#SVGID_52_);fill:#272425;}
	.st30{clip-path:url(#SVGID_54_);}
	.st31{fill:#D470B6;}
	.st32{fill:#A63895;}
	.st33{clip-path:url(#SVGID_56_);fill:#D08E83;}
	.st34{clip-path:url(#SVGID_58_);}
</style>
<g id="bg">
</g>
<g id="template">
	<g>
		<g>
			<defs>
				<polygon id="SVGID_1_" points="-4.2,0.2 -4.2,66.2 -4.2,92.4 -4.2,200.8 -4.2,625.5 193,625.5 207.2,625.5 287.9,625.5 
					333.3,625.5 373.1,625.5 387.3,625.5 402.5,625.5 639.6,625.5 864.8,625.5 997.3,625.5 997.3,0.2 				"/>
			</defs>
			<clipPath id="SVGID_2_">
				<use xlink:href="#SVGID_1_"  style="overflow:visible;"/>
			</clipPath>
		</g>
		<g>
			<defs>
				<polygon id="SVGID_3_" points="-4.2,0.2 -4.2,66.2 -4.2,92.4 -4.2,200.8 -4.2,625.5 193,625.5 207.2,625.5 287.9,625.5 
					333.3,625.5 373.1,625.5 387.3,625.5 402.5,625.5 639.6,625.5 864.8,625.5 997.3,625.5 997.3,0.2 				"/>
			</defs>
			<clipPath id="SVGID_4_">
				<use xlink:href="#SVGID_3_"  style="overflow:visible;"/>
			</clipPath>
			<g class="st0">
				<path class="st1" d="M216.9,525.8l0.2,6.7c25.3-0.8,50.6,0.5,75.5,3.8c-1.2-2.4-2.4-4.9-3.7-7.3
					C265.1,526.1,241.1,525,216.9,525.8z"/>
				<path class="st1" d="M711.5,527.7c-30.3,3.5-56.8,9.7-81,18.9c-5.9,2.3-11.8,4.7-17.5,7.1c-9.6,4.1-19.6,8.3-29.7,11.3
					c-18.4,5.6-39.4,8.8-63.9,9.7C460,577,415.8,562,386.5,552c-3-1-5.8-2-8.4-2.9c-29.1-9.7-58.9-16.4-89.1-20.1
					c1.2,2.4,2.5,4.9,3.7,7.3c28.2,3.8,56.1,10.2,83.4,19.2c2.7,0.9,5.4,1.8,8.4,2.8c27.8,9.4,68.8,23.4,123.4,23.4
					c3.9,0,7.8-0.1,11.8-0.2c25.2-0.9,46.6-4.2,65.7-10c10.4-3.2,20.6-7.4,30.4-11.6c5.7-2.4,11.5-4.8,17.3-7.1
					c22.9-8.7,47.9-14.6,76.5-18.2c1.8-2.5,3.7-5,5.5-7.4C713.8,527.5,712.6,527.6,711.5,527.7z"/>
				<path class="st1" d="M804.3,522l-30.4,1.4c-19.3,0.9-39.3,1.8-59,4c-1.8,2.5-3.7,5-5.5,7.4c1-0.1,1.9-0.2,2.9-0.4
					c20.5-2.4,41.5-3.4,61.9-4.3l30.3-1.4L804.3,522z"/>
			</g>
		</g>
		<g>
			<defs>
				<polygon id="SVGID_5_" points="-4.2,0.2 -4.2,66.2 -4.2,92.4 -4.2,200.8 -4.2,625.5 193,625.5 207.2,625.5 287.9,625.5 
					333.3,625.5 373.1,625.5 387.3,625.5 402.5,625.5 639.6,625.5 864.8,625.5 997.3,625.5 997.3,0.2 				"/>
			</defs>
			<clipPath id="SVGID_6_">
				<use xlink:href="#SVGID_5_"  style="overflow:visible;"/>
			</clipPath>
			<g class="st2">
				<path class="st3" d="M1028.5,613.1c-6.8-1.3-13.8,0.4-20.6,1.2c-9.6,1.2-20,0.7-27.9-4.9c-5.9-4.2-9.9-11.1-16.5-13.8
					c-4.1-1.7-8.6-1.7-13-2.1c-8.8-0.9-17.7-4.1-24-10.3c2.9,10.7,6.9,21.3,14.3,29.7c10.4,11.7,26.1,17.2,41.3,21.4
					c10.2,2.8,20.7,5.3,31.3,4.7c13.7-0.8,26.5-6.8,37-15.7c-1.2-0.5-2.4-1.1-3.5-1.7C1040.9,618.2,1035.1,614.4,1028.5,613.1z"/>
				<path class="st3" d="M933.5,485.5c4.6-6.2,9.3-12.9,16.4-15.8c4.3-1.8,9.1-2.1,13.3-4c7.7-3.4,12.5-11.7,20.5-14.2
					c7.4-2.3,15.5,0.9,23.1-0.6c4-0.8,7.6-2.8,11.4-4.2c3.8-1.4,8.2-2.1,11.8-0.2c4.8,2.5,6.5,8.3,8.8,13.2
					c3,6.2,7.5,11.5,12.1,16.7c3.2,3.7,6.4,7.4,9.7,11c3.1,3.6,6.2,7.1,9.8,10.2c4.9,4.2,10.6,7.4,16.5,10c-0.4-8.1-1.4-16.1-3.2-24
					c-4.1-18.2-12.3-35.2-21.7-51.4c-5.8-10-12.3-19.8-20.9-27.6c-19.9-17.9-53.6-23-75.5-6c-11.8,9.1-19.8,22.1-26.1,35.4
					c-10,21-16.4,43.6-19.2,66.6C925.2,496.1,929.6,490.8,933.5,485.5z"/>
				<path class="st4" d="M1070.5,497.7c-3.6-3.1-6.7-6.6-9.8-10.2c-3.2-3.7-6.4-7.4-9.7-11c-4.5-5.2-9.1-10.5-12.1-16.7
					c-2.3-4.9-4-10.8-8.8-13.2c-3.6-1.9-8-1.2-11.8,0.2c-3.8,1.4-7.4,3.4-11.4,4.2c-7.6,1.5-15.7-1.8-23.1,0.6
					c-8,2.5-12.9,10.8-20.5,14.2c-4.2,1.9-9.1,2.2-13.3,4c-7.1,3-11.8,9.7-16.4,15.8c-3.9,5.3-8.3,10.6-13.1,15.2
					c-3.3,27.4-1.4,55.4,5.9,82.1c0,0.1,0.1,0.3,0.1,0.4c6.3,6.2,15.2,9.4,24,10.3c4.4,0.4,9,0.4,13,2.1c6.7,2.8,10.7,9.6,16.5,13.8
					c7.8,5.6,18.3,6.1,27.9,4.9c6.9-0.9,13.8-2.5,20.6-1.2c6.6,1.2,12.4,5.1,18.4,8.3c1.1,0.6,2.3,1.2,3.5,1.7
					c5.6-4.7,10.5-10.3,14.5-16.3c11.6-17.2,16.8-37.8,19.8-58.2c2-13.5,3.1-27.3,2.4-40.9C1081.1,505.1,1075.4,501.9,1070.5,497.7z
					"/>
			</g>
		</g>
		<g>
			<defs>
				<polygon id="SVGID_7_" points="-4.2,0.2 -4.2,66.2 -4.2,92.4 -4.2,200.8 -4.2,625.5 193,625.5 207.2,625.5 287.9,625.5 
					333.3,625.5 373.1,625.5 387.3,625.5 402.5,625.5 639.6,625.5 864.8,625.5 997.3,625.5 997.3,0.2 				"/>
			</defs>
			<clipPath id="SVGID_8_">
				<use xlink:href="#SVGID_7_"  style="overflow:visible;"/>
			</clipPath>
			<g class="st5">
				<path class="st3" d="M57.4,599.9c-6.4-1.1-12.7,1.9-18.2,5.3c-5.5,3.4-10.8,7.5-17.1,9c-4.1,1-8.4,0.7-12.6,1.2
					c-9.1,1-17.7,5.3-23.9,12c-0.1,0.1-0.2,0.2-0.3,0.3c0.2,0.1,0.4,0.2,0.7,0.3c7.5,3.1,16.3,3.6,24.7,3
					c23.1-1.6,44.8-12,58.4-26.9c-0.1,0-0.2-0.1-0.4-0.1C64.9,602.8,61.4,600.5,57.4,599.9z"/>
				<path class="st3" d="M-20,467.4c13.6-8.2,25.1-21,40.7-23.9c4.1-0.7,8.2-0.8,12.3-1.5c12.4-2.2,23-11,29.3-21.8
					c0.9-1.6,1.7-3.2,2.5-4.8c-0.8-1-1.7-2-2.5-3c-15.4-17.5-35.4-32.9-58.8-43.5c-13-5.9-19.6-5.8-31,2
					c-9.7,6.6-17.2,15.1-22.5,24.3c-7.3,12.6-10.8,26.4-13.7,40c-4,18.6-7,37.4-7.8,56.2c2.8-1.9,5.6-3.6,8.6-5.2
					C-49,478.9-33.4,475.4-20,467.4z"/>
				<path class="st4" d="M100.8,485c-6.7-24.7-18.3-48.7-35.9-69.7c-0.8,1.6-1.6,3.2-2.5,4.8C56,431,45.4,439.8,33,442
					c-4.1,0.7-8.2,0.7-12.3,1.5C5.1,446.3-6.4,459.2-20,467.4c-13.4,8-29.1,11.6-42.9,18.9c-3,1.6-5.8,3.3-8.6,5.2
					c-0.6,12.2-0.2,24.4,1.3,36.5c3.9,30.9,15.9,61.6,38.9,86.7c4.6,5,9.8,9.9,16.7,12.9c0.1-0.1,0.2-0.2,0.3-0.3
					c6.2-6.6,14.9-11,23.9-12c4.2-0.5,8.5-0.3,12.6-1.2c6.3-1.5,11.6-5.5,17.1-9s11.8-6.4,18.2-5.3c4,0.7,7.5,2.9,11.3,4.1
					c0.1,0,0.2,0.1,0.4,0.1c4-4.4,7.3-9.2,9.7-14.3c8.9-19,5.9-39.6,4-60.1c-0.7-7.4,3.4-14.3,10.1-17.5c3.6-1.7,6.6-4.5,8.1-7.7
					C103.9,498.3,102.5,491.5,100.8,485z"/>
			</g>
		</g>
		<g>
			<defs>
				<polygon id="SVGID_9_" points="-4.2,0.2 -4.2,66.2 -4.2,92.4 -4.2,200.8 -4.2,625.5 193,625.5 207.2,625.5 287.9,625.5 
					333.3,625.5 373.1,625.5 387.3,625.5 402.5,625.5 639.6,625.5 864.8,625.5 997.3,625.5 997.3,0.2 				"/>
			</defs>
			<clipPath id="SVGID_10_">
				<use xlink:href="#SVGID_9_"  style="overflow:visible;"/>
			</clipPath>
			<g class="st6">
				<path class="st4" d="M208.9,598.8c-6-8.2-16.3-11.9-26.2-14.2c-9.9-2.3-20.2-3.7-29-8.9c-1-0.6-2-1.3-3-1.9
					c2,11.3,3.8,23.1,0.4,34.1c-2.7,8.4-8.3,15.6-13.8,22.5c-10.8,13.6-31.8,32.5-47.6,40C52,688.2-23,674.1-35.8,675.7
					c-24.8,3.1-28.4-5.3-53.3-7c-4.4-0.3-9.6-0.4-12.5,3c-1.5,1.8-2.1,4.2-2.5,6.6c-1.6,8.2,0.8,24-0.3,32.3
					c-0.8,6.3-1.4,13,1.2,18.8c3,6.6,23.3,24.5,30.3,26.3c22.5,5.9,50.4,8.4,73.6,7.4c27.8-1.1,98.2-5.6,122.7-18.9
					c29-15.7,64.4-50.6,81.2-79.1c6.6-11.2,12.2-23,16.8-35.1c-1.5-2.7-2.7-5.6-3.7-8.5C215.2,613.8,213.8,605.3,208.9,598.8z"/>
				<path class="st3" d="M235.9,535.1c-5.9-5.3-14.7-6.6-22.2-3.9c-24.2,8.4-44.7,23.5-63.2,41.3c0.1,0.4,0.2,0.9,0.2,1.3
					c1,0.7,1.9,1.3,3,1.9c8.8,5.1,19.1,6.6,29,8.9c9.9,2.3,20.2,6.1,26.2,14.2c4.9,6.6,6.2,15,8.7,22.8c0.9,2.9,2.1,5.8,3.7,8.5
					C232.7,599.9,237.8,567.3,235.9,535.1z"/>
			</g>
		</g>
		<g>
			<defs>
				<polygon id="SVGID_11_" points="-4.2,0.2 -4.2,66.2 -4.2,92.4 -4.2,200.8 -4.2,625.5 193,625.5 207.2,625.5 287.9,625.5 
					333.3,625.5 373.1,625.5 387.3,625.5 402.5,625.5 639.6,625.5 864.8,625.5 997.3,625.5 997.3,0.2 				"/>
			</defs>
			<clipPath id="SVGID_12_">
				<use xlink:href="#SVGID_11_"  style="overflow:visible;"/>
			</clipPath>
			<g class="st7">
				<path class="st8" d="M258.4,482c-0.3-0.9-0.5-1.9-1.2-2.5c-0.8-0.8-1.9-0.9-3-1.1c-2.5-0.3-5-0.7-7.5-1c0.2,0.9,0.4,1.7,0.5,2.6
					c0.8,3.7,1.6,7.5,1.1,11.2s-2.3,7.5-5.6,9.3c-5.2,2.8-11.5,0-16.7-2.8c-6.4,6.9-18.8,7-25.3,0c-6.7,5.3-17.2,5.3-23.9,0
					c-0.6-0.5-1.2-1-2-0.9c-0.5,0.1-0.9,0.5-1.3,0.8c-5.4,4.9-14.6,4.8-19.9-0.3c-3.2-3.1-4.8-7.4-6.4-11.4c-1.8-4.4-3.9-8.8-6.2-13
					c-0.3,0-0.5,0-0.8,0c-8.4,0.1-16.8,0.2-25.2,0.3c-0.1,0.3-0.1,0.6-0.1,0.9c7.4,31.3,8.7,64.2,3.6,96c-0.4,2.6-0.9,5.1-1.8,7.6
					c-0.4,1.1-1,2.3-1.5,3.4c16-1.6,31.9-3.3,47.8-5c2.2-6.3,4.5-12.5,7-18.6c1.4-3.4,2.8-6.8,5.1-9.7c0.5-0.7,1.2-1.4,2.1-1.4
					c1.5,0,2.2,1.8,2.5,3.3c1.5,8.1,1.7,16.3,0.9,24.5c24.8-2.8,49.6-5.8,74.3-9c1.3-0.2,2.7-0.4,3.8-1.2c1.3-1.1,1.8-2.9,2.2-4.5
					C266.4,534.1,265.5,507.2,258.4,482z"/>
				<path class="st9" d="M153.8,497.6c5.2,5.1,14.5,5.2,19.9,0.3c0.4-0.4,0.8-0.8,1.3-0.8c0.7-0.1,1.4,0.4,2,0.9
					c6.7,5.4,17.2,5.4,23.9,0c6.5,6.9,18.9,6.9,25.3-0.1c5.2,2.8,11.5,5.6,16.7,2.8c3.3-1.8,5.1-5.6,5.6-9.3
					c0.4-3.7-0.4-7.5-1.1-11.2c-0.2-0.9-0.4-1.7-0.5-2.6c-2.1-0.3-4.2-0.5-6.3-0.7c-32.9-3.5-66.1-3.9-99.3-3.6
					c2.3,4.2,4.4,8.5,6.2,13C149,490.2,150.6,494.5,153.8,497.6z"/>
				<path class="st9" d="M179.9,549.9c-0.3-1.5-1-3.3-2.5-3.3c-0.9,0-1.5,0.7-2.1,1.4c-2.3,2.9-3.8,6.3-5.1,9.7
					c-2.5,6.2-4.8,12.4-7,18.6c5.9-0.6,11.7-1.3,17.6-1.9C181.6,566.2,181.3,558,179.9,549.9z"/>
			</g>
		</g>
		<g>
			<defs>
				<polygon id="SVGID_13_" points="-4.2,0.2 -4.2,66.2 -4.2,92.4 -4.2,200.8 -4.2,625.5 193,625.5 207.2,625.5 287.9,625.5 
					333.3,625.5 373.1,625.5 387.3,625.5 402.5,625.5 639.6,625.5 864.8,625.5 997.3,625.5 997.3,0.2 				"/>
			</defs>
			<clipPath id="SVGID_14_">
				<use xlink:href="#SVGID_13_"  style="overflow:visible;"/>
			</clipPath>
			<path class="st10" d="M118.6,570.4c5.1-31.8,3.9-64.6-3.6-96c-5.3,34.5-4.9,72.4,0.3,106.9c0,0,0,0,0,0c0.5-1.1,1.1-2.3,1.5-3.4
				C117.7,575.5,118.2,572.9,118.6,570.4z"/>
		</g>
		<g>
			<defs>
				<polygon id="SVGID_15_" points="-4.2,0.2 -4.2,66.2 -4.2,92.4 -4.2,200.8 -4.2,625.5 193,625.5 207.2,625.5 287.9,625.5 
					333.3,625.5 373.1,625.5 387.3,625.5 402.5,625.5 639.6,625.5 864.8,625.5 997.3,625.5 997.3,0.2 				"/>
			</defs>
			<clipPath id="SVGID_16_">
				<use xlink:href="#SVGID_15_"  style="overflow:visible;"/>
			</clipPath>
			<path class="st11" d="M229.2,489.4c1.1,1.9,2.4,3.8,4.2,5c1.7,1,3.6,1.3,5.6,1.4c3.3,0.2,6.8-0.1,9.4-2.1c2.6-2,3.8-5.4,3.6-8.7
				c-0.2-3.3-1.6-6.3-3.4-9c-4.3-6.3-11.3-11.2-18.9-11.3c-2.6,0-5.3,0.5-7.3,2.1C215,472.7,225.9,484,229.2,489.4z"/>
		</g>
		<g>
			<defs>
				<polygon id="SVGID_17_" points="-4.2,0.2 -4.2,66.2 -4.2,92.4 -4.2,200.8 -4.2,625.5 193,625.5 207.2,625.5 287.9,625.5 
					333.3,625.5 373.1,625.5 387.3,625.5 402.5,625.5 639.6,625.5 864.8,625.5 997.3,625.5 997.3,0.2 				"/>
			</defs>
			<clipPath id="SVGID_18_">
				<use xlink:href="#SVGID_17_"  style="overflow:visible;"/>
			</clipPath>
			<path class="st12" d="M203.7,489.4c1.1,1.9,2.4,3.8,4.2,5c1.7,1,3.6,1.3,5.6,1.4c3.3,0.2,6.8-0.1,9.4-2.1c2.6-2,3.8-5.4,3.6-8.7
				c-0.2-3.3-1.6-6.3-3.4-9c-4.2-6.3-11.3-11.2-18.9-11.3c-2.6,0-5.3,0.5-7.3,2.1C189.5,472.7,200.4,484,203.7,489.4z"/>
		</g>
		<g>
			<defs>
				<polygon id="SVGID_19_" points="-4.2,0.2 -4.2,66.2 -4.2,92.4 -4.2,200.8 -4.2,625.5 193,625.5 207.2,625.5 287.9,625.5 
					333.3,625.5 373.1,625.5 387.3,625.5 402.5,625.5 639.6,625.5 864.8,625.5 997.3,625.5 997.3,0.2 				"/>
			</defs>
			<clipPath id="SVGID_20_">
				<use xlink:href="#SVGID_19_"  style="overflow:visible;"/>
			</clipPath>
			<path class="st13" d="M178.2,489.4c1.1,1.9,2.4,3.8,4.2,5c1.7,1,3.6,1.3,5.6,1.4c3.3,0.2,6.8-0.1,9.4-2.1c2.6-2,3.8-5.4,3.6-8.7
				c-0.2-3.3-1.6-6.3-3.4-9c-4.2-6.3-11.3-11.2-18.9-11.3c-2.6,0-5.3,0.5-7.3,2.1C164,472.7,174.9,484,178.2,489.4z"/>
		</g>
		<g>
			<defs>
				<polygon id="SVGID_21_" points="-4.2,0.2 -4.2,66.2 -4.2,92.4 -4.2,200.8 -4.2,625.5 193,625.5 207.2,625.5 287.9,625.5 
					333.3,625.5 373.1,625.5 387.3,625.5 402.5,625.5 639.6,625.5 864.8,625.5 997.3,625.5 997.3,0.2 				"/>
			</defs>
			<clipPath id="SVGID_22_">
				<use xlink:href="#SVGID_21_"  style="overflow:visible;"/>
			</clipPath>
			<path class="st14" d="M152.7,489.4c1.1,1.9,2.4,3.8,4.2,5c1.7,1,3.6,1.3,5.6,1.4c3.3,0.2,6.8-0.1,9.4-2.1c2.6-2,3.8-5.4,3.6-8.7
				c-0.2-3.3-1.6-6.3-3.4-9c-4.3-6.3-11.3-11.2-18.9-11.3c-2.6,0-5.3,0.5-7.3,2.1C138.5,472.7,149.4,484,152.7,489.4z"/>
		</g>
		<g>
			<defs>
				<polygon id="SVGID_23_" points="-4.2,0.2 -4.2,66.2 -4.2,92.4 -4.2,200.8 -4.2,625.5 193,625.5 207.2,625.5 287.9,625.5 
					333.3,625.5 373.1,625.5 387.3,625.5 402.5,625.5 639.6,625.5 864.8,625.5 997.3,625.5 997.3,0.2 				"/>
			</defs>
			<clipPath id="SVGID_24_">
				<use xlink:href="#SVGID_23_"  style="overflow:visible;"/>
			</clipPath>
			<path class="st15" d="M153.5,546.6c5.2-5.4,12.8-9.9,19.9-7.5c7,2.3,10.6,11.1,8.1,18.1c-0.8,2.2-2,4.1-2.7,6.3
				c-0.6,1.9-0.9,4-1.4,5.9c-1.6,5.5-5.9,10-11,12.5c-5.1,2.5-11,3.2-16.7,2.8C128.8,583,146,554.4,153.5,546.6z"/>
		</g>
		<g>
			<defs>
				<polygon id="SVGID_25_" points="-4.2,0.2 -4.2,66.2 -4.2,92.4 -4.2,200.8 -4.2,625.5 193,625.5 207.2,625.5 287.9,625.5 
					333.3,625.5 373.1,625.5 387.3,625.5 402.5,625.5 639.6,625.5 864.8,625.5 997.3,625.5 997.3,0.2 				"/>
			</defs>
			<clipPath id="SVGID_26_">
				<use xlink:href="#SVGID_25_"  style="overflow:visible;"/>
			</clipPath>
			<g class="st16">
				<path class="st4" d="M785.5,598.8c6-8.2,16.3-11.9,26.2-14.2c9.9-2.3,20.2-3.7,29-8.9c1-0.6,2-1.3,3-1.9
					c-2,11.3-3.8,23.1-0.4,34.1c2.7,8.4,8.3,15.6,13.8,22.5c10.8,13.6,31.8,32.5,47.6,40c37.8,17.9,112.7,3.8,125.5,5.4
					c24.8,3.1,28.4-5.3,53.3-7c4.4-0.3,9.6-0.4,12.5,3c1.5,1.8,2.1,4.2,2.5,6.6c1.6,8.2-0.8,24,0.3,32.3c0.8,6.3,1.4,13-1.2,18.8
					c-3,6.6-23.3,24.5-30.3,26.3c-22.5,5.9-50.4,8.4-73.6,7.4c-27.8-1.1-98.2-5.6-122.7-18.9c-29-15.7-64.4-50.6-81.2-79.1
					c-6.6-11.2-12.2-23-16.8-35.1c1.5-2.7,2.7-5.6,3.7-8.5C779.2,613.8,780.6,605.3,785.5,598.8z"/>
				<path class="st3" d="M758.5,535.1c5.9-5.3,14.7-6.6,22.2-3.9c24.2,8.4,44.7,23.5,63.2,41.3c-0.1,0.4-0.2,0.9-0.2,1.3
					c-1,0.7-1.9,1.3-3,1.9c-8.8,5.1-19.1,6.6-29,8.9c-9.9,2.3-20.2,6.1-26.2,14.2c-4.9,6.6-6.2,15-8.7,22.8
					c-0.9,2.9-2.1,5.8-3.7,8.5C761.7,599.9,756.6,567.3,758.5,535.1z"/>
			</g>
		</g>
		<g>
			<defs>
				<polygon id="SVGID_27_" points="-4.2,0.2 -4.2,66.2 -4.2,92.4 -4.2,200.8 -4.2,625.5 193,625.5 207.2,625.5 287.9,625.5 
					333.3,625.5 373.1,625.5 387.3,625.5 402.5,625.5 639.6,625.5 864.8,625.5 997.3,625.5 997.3,0.2 				"/>
			</defs>
			<clipPath id="SVGID_28_">
				<use xlink:href="#SVGID_27_"  style="overflow:visible;"/>
			</clipPath>
			<g class="st17">
				<path class="st8" d="M732.5,482c0.3-0.9,0.5-1.9,1.2-2.5c0.8-0.8,1.9-0.9,3-1.1c2.5-0.3,5-0.7,7.5-1c-0.2,0.9-0.4,1.7-0.5,2.6
					c-0.8,3.7-1.6,7.5-1.1,11.2s2.3,7.5,5.6,9.3c5.2,2.8,11.5,0,16.7-2.8c6.4,6.9,18.8,7,25.3,0c6.7,5.3,17.2,5.3,23.9,0
					c0.6-0.5,1.2-1,2-0.9c0.5,0.1,0.9,0.5,1.3,0.8c5.4,4.9,14.6,4.8,19.9-0.3c3.2-3.1,4.8-7.4,6.4-11.4c1.8-4.4,3.9-8.8,6.2-13
					c0.3,0,0.5,0,0.8,0c8.4,0.1,16.8,0.2,25.2,0.3c0.1,0.3,0.1,0.6,0.1,0.9c-7.4,31.3-8.7,64.2-3.6,96c0.4,2.6,0.9,5.1,1.8,7.6
					c0.4,1.1,1,2.3,1.5,3.4c-16-1.6-31.9-3.3-47.8-5c-2.2-6.3-4.5-12.5-7-18.6c-1.4-3.4-2.8-6.8-5.1-9.7c-0.5-0.7-1.2-1.4-2.1-1.4
					c-1.5,0-2.2,1.8-2.5,3.3c-1.5,8.1-1.7,16.3-0.9,24.5c-24.8-2.8-49.6-5.8-74.3-9c-1.3-0.2-2.7-0.4-3.8-1.2
					c-1.3-1.1-1.8-2.9-2.2-4.5C724.6,534.1,725.5,507.2,732.5,482z"/>
				<path class="st9" d="M837.2,497.6c-5.2,5.1-14.5,5.2-19.9,0.3c-0.4-0.4-0.8-0.8-1.3-0.8c-0.7-0.1-1.4,0.4-2,0.9
					c-6.7,5.4-17.2,5.4-23.9,0c-6.5,6.9-18.9,6.9-25.3-0.1c-5.2,2.8-11.5,5.6-16.7,2.8c-3.3-1.8-5.1-5.6-5.6-9.3
					c-0.4-3.7,0.4-7.5,1.1-11.2c0.2-0.9,0.4-1.7,0.5-2.6c2.1-0.3,4.2-0.5,6.3-0.7c32.9-3.5,66.1-3.9,99.3-3.6
					c-2.3,4.2-4.4,8.5-6.2,13C842,490.2,840.4,494.5,837.2,497.6z"/>
				<path class="st9" d="M811.1,549.9c0.3-1.5,1-3.3,2.5-3.3c0.9,0,1.5,0.7,2.1,1.4c2.3,2.9,3.8,6.3,5.1,9.7
					c2.5,6.2,4.8,12.4,7,18.6c-5.9-0.6-11.7-1.3-17.6-1.9C809.3,566.2,809.6,558,811.1,549.9z"/>
			</g>
		</g>
		<g>
			<defs>
				<polygon id="SVGID_29_" points="-4.2,0.2 -4.2,66.2 -4.2,92.4 -4.2,200.8 -4.2,625.5 193,625.5 207.2,625.5 287.9,625.5 
					333.3,625.5 373.1,625.5 387.3,625.5 402.5,625.5 639.6,625.5 864.8,625.5 997.3,625.5 997.3,0.2 				"/>
			</defs>
			<clipPath id="SVGID_30_">
				<use xlink:href="#SVGID_29_"  style="overflow:visible;"/>
			</clipPath>
			<path class="st18" d="M872.4,570.4c-5.1-31.8-3.9-64.6,3.6-96c5.3,34.5,4.9,72.4-0.3,106.9c0,0,0,0,0,0c-0.5-1.1-1.1-2.3-1.5-3.4
				C873.3,575.5,872.8,572.9,872.4,570.4z"/>
		</g>
		<g>
			<defs>
				<polygon id="SVGID_31_" points="-4.2,0.2 -4.2,66.2 -4.2,92.4 -4.2,200.8 -4.2,625.5 193,625.5 207.2,625.5 287.9,625.5 
					333.3,625.5 373.1,625.5 387.3,625.5 402.5,625.5 639.6,625.5 864.8,625.5 997.3,625.5 997.3,0.2 				"/>
			</defs>
			<clipPath id="SVGID_32_">
				<use xlink:href="#SVGID_31_"  style="overflow:visible;"/>
			</clipPath>
			<path class="st19" d="M765.3,489.4c-1.1,1.9-2.4,3.8-4.2,5c-1.7,1-3.6,1.3-5.6,1.4c-3.3,0.2-6.8-0.1-9.4-2.1
				c-2.6-2-3.8-5.4-3.6-8.7c0.2-3.3,1.6-6.3,3.4-9c4.3-6.3,11.3-11.2,18.9-11.3c2.6,0,5.3,0.5,7.3,2.1
				C779.4,472.7,768.5,484,765.3,489.4z"/>
		</g>
		<g>
			<defs>
				<polygon id="SVGID_33_" points="-4.2,0.2 -4.2,66.2 -4.2,92.4 -4.2,200.8 -4.2,625.5 193,625.5 207.2,625.5 287.9,625.5 
					333.3,625.5 373.1,625.5 387.3,625.5 402.5,625.5 639.6,625.5 864.8,625.5 997.3,625.5 997.3,0.2 				"/>
			</defs>
			<clipPath id="SVGID_34_">
				<use xlink:href="#SVGID_33_"  style="overflow:visible;"/>
			</clipPath>
			<path class="st20" d="M790.8,489.4c-1.1,1.9-2.4,3.8-4.2,5c-1.7,1-3.6,1.3-5.6,1.4c-3.3,0.2-6.8-0.1-9.4-2.1
				c-2.6-2-3.8-5.4-3.6-8.7c0.2-3.3,1.6-6.3,3.4-9c4.3-6.3,11.3-11.2,18.9-11.3c2.6,0,5.3,0.5,7.3,2.1
				C804.9,472.7,794,484,790.8,489.4z"/>
		</g>
		<g>
			<defs>
				<polygon id="SVGID_35_" points="-4.2,0.2 -4.2,66.2 -4.2,92.4 -4.2,200.8 -4.2,625.5 193,625.5 207.2,625.5 287.9,625.5 
					333.3,625.5 373.1,625.5 387.3,625.5 402.5,625.5 639.6,625.5 864.8,625.5 997.3,625.5 997.3,0.2 				"/>
			</defs>
			<clipPath id="SVGID_36_">
				<use xlink:href="#SVGID_35_"  style="overflow:visible;"/>
			</clipPath>
			<path class="st21" d="M816.3,489.4c-1.1,1.9-2.4,3.8-4.2,5c-1.7,1-3.6,1.3-5.6,1.4c-3.3,0.2-6.8-0.1-9.4-2.1
				c-2.6-2-3.8-5.4-3.6-8.7c0.2-3.3,1.6-6.3,3.4-9c4.3-6.3,11.3-11.2,18.9-11.3c2.6,0,5.3,0.5,7.3,2.1
				C830.4,472.7,819.5,484,816.3,489.4z"/>
		</g>
		<g>
			<defs>
				<polygon id="SVGID_37_" points="-4.2,0.2 -4.2,66.2 -4.2,92.4 -4.2,200.8 -4.2,625.5 193,625.5 207.2,625.5 287.9,625.5 
					333.3,625.5 373.1,625.5 387.3,625.5 402.5,625.5 639.6,625.5 864.8,625.5 997.3,625.5 997.3,0.2 				"/>
			</defs>
			<clipPath id="SVGID_38_">
				<use xlink:href="#SVGID_37_"  style="overflow:visible;"/>
			</clipPath>
			<path class="st22" d="M841.8,489.4c-1.1,1.9-2.4,3.8-4.2,5c-1.7,1-3.6,1.3-5.6,1.4c-3.3,0.2-6.8-0.1-9.4-2.1
				c-2.6-2-3.8-5.4-3.6-8.7c0.2-3.3,1.6-6.3,3.4-9c4.3-6.3,11.3-11.2,18.9-11.3c2.6,0,5.3,0.5,7.3,2.1
				C855.9,472.7,845,484,841.8,489.4z"/>
		</g>
		<g>
			<defs>
				<polygon id="SVGID_39_" points="-4.2,0.2 -4.2,66.2 -4.2,92.4 -4.2,200.8 -4.2,625.5 193,625.5 207.2,625.5 287.9,625.5 
					333.3,625.5 373.1,625.5 387.3,625.5 402.5,625.5 639.6,625.5 864.8,625.5 997.3,625.5 997.3,0.2 				"/>
			</defs>
			<clipPath id="SVGID_40_">
				<use xlink:href="#SVGID_39_"  style="overflow:visible;"/>
			</clipPath>
			<path class="st23" d="M840.9,546.6c-5.2-5.4-12.8-9.9-19.9-7.5c-7,2.3-10.6,11.1-8.1,18.1c0.8,2.2,2,4.1,2.7,6.3
				c0.6,1.9,0.9,4,1.4,5.9c1.6,5.5,5.9,10,11,12.5c5.1,2.5,11,3.2,16.7,2.8C865.6,583,848.4,554.4,840.9,546.6z"/>
		</g>
		<g>
			<defs>
				<polygon id="SVGID_41_" points="-4.2,0.2 -4.2,66.2 -4.2,92.4 -4.2,200.8 -4.2,625.5 193,625.5 207.2,625.5 287.9,625.5 
					333.3,625.5 373.1,625.5 387.3,625.5 402.5,625.5 639.6,625.5 864.8,625.5 997.3,625.5 997.3,0.2 				"/>
			</defs>
			<clipPath id="SVGID_42_">
				<use xlink:href="#SVGID_41_"  style="overflow:visible;"/>
			</clipPath>
			<path class="st24" d="M49.7,541.1c-5-2-10-4-15.1-5.9c-3-1.2-6.2-2.4-9.4-2.4c-7.7,0.1-13.8,7.3-15.7,14.8
				c-2.7,10.7,1.1,22.5,8.7,30.4S37,590.1,48,590.3c8.2,0.1,16.7-2,22.7-7.6c4.9-4.6,7.6-11.2,8.4-17.9c0.5-4.4,0.3-8.9-0.3-13.3
				c-0.8-5.7-0.5-5.9-5.4-6C64.6,545.5,57.9,544.4,49.7,541.1z"/>
		</g>
		<g>
			<defs>
				<polygon id="SVGID_43_" points="-4.2,0.2 -4.2,66.2 -4.2,92.4 -4.2,200.8 -4.2,625.5 193,625.5 207.2,625.5 287.9,625.5 
					333.3,625.5 373.1,625.5 387.3,625.5 402.5,625.5 639.6,625.5 864.8,625.5 997.3,625.5 997.3,0.2 				"/>
			</defs>
			<clipPath id="SVGID_44_">
				<use xlink:href="#SVGID_43_"  style="overflow:visible;"/>
			</clipPath>
			<path class="st25" d="M924.7,483.6c-1.6-3.6-4.1-7.1-7.9-8.1c-3.8-0.9-7.8,1.1-10.3,4.2c-2.5,3-3.6,6.9-4.6,10.7
				c-2.1,8-3.6,16.4-1.9,24.5c1.7,8.1,7.2,15.8,15.2,18c2,0.6,4.3,0.7,6.2-0.2c4.4-2,5-7.8,5-12.5
				C926.3,508.5,929.6,494.5,924.7,483.6z"/>
		</g>
		<g>
			<defs>
				<polygon id="SVGID_45_" points="-4.2,0.2 -4.2,66.2 -4.2,92.4 -4.2,200.8 -4.2,625.5 193,625.5 207.2,625.5 287.9,625.5 
					333.3,625.5 373.1,625.5 387.3,625.5 402.5,625.5 639.6,625.5 864.8,625.5 997.3,625.5 997.3,0.2 				"/>
			</defs>
			<clipPath id="SVGID_46_">
				<use xlink:href="#SVGID_45_"  style="overflow:visible;"/>
			</clipPath>
			<path class="st26" d="M1082.2,444.9c1.6-3.6,4.1-7.1,7.9-8.1c3.8-0.9,7.8,1.1,10.3,4.2c2.5,3,3.6,6.9,4.6,10.7
				c2.1,8,3.6,16.4,1.9,24.5c-1.7,8.1-7.2,15.8-15.2,18c-2,0.6-4.3,0.7-6.2-0.2c-4.4-2-5-7.8-5-12.5
				C1080.6,469.8,1077.3,455.8,1082.2,444.9z"/>
		</g>
		<g>
			<defs>
				<polygon id="SVGID_47_" points="-4.2,0.2 -4.2,66.2 -4.2,92.4 -4.2,200.8 -4.2,625.5 193,625.5 207.2,625.5 287.9,625.5 
					333.3,625.5 373.1,625.5 387.3,625.5 402.5,625.5 639.6,625.5 864.8,625.5 997.3,625.5 997.3,0.2 				"/>
			</defs>
			<clipPath id="SVGID_48_">
				<use xlink:href="#SVGID_47_"  style="overflow:visible;"/>
			</clipPath>
			<path class="st27" d="M979,500.9c-1.3-4.1-5-7.7-9.5-5.4c-3.5,1.8-5.2,6.2-5.9,9.9c-1,4.9-0.7,10.5,4.1,13.2
				c4.9,2.8,10-0.1,12-4.8C981.5,509.8,981.5,504.6,979,500.9z"/>
		</g>
		<g>
			<defs>
				<polygon id="SVGID_49_" points="-4.2,0.2 -4.2,66.2 -4.2,92.4 -4.2,200.8 -4.2,625.5 193,625.5 207.2,625.5 287.9,625.5 
					333.3,625.5 373.1,625.5 387.3,625.5 402.5,625.5 639.6,625.5 864.8,625.5 997.3,625.5 997.3,0.2 				"/>
			</defs>
			<clipPath id="SVGID_50_">
				<use xlink:href="#SVGID_49_"  style="overflow:visible;"/>
			</clipPath>
			<path class="st28" d="M1035.2,502.3c-0.6-2.8-2-5.6-4.5-7.2c-2.1-1.3-4.4-1.3-6.4-0.4c-2,0.1-3.6,1.3-4.6,3.5
				c-1.2,2.4-1.7,5.5-1.3,8.4c-0.2,5.5,1.9,11,7.9,11.1c0.3,0,0.7,0,1-0.1c1.2,0,2.4-0.3,3.7-1
				C1035.4,513.9,1036.1,506.9,1035.2,502.3z"/>
		</g>
		<g>
			<defs>
				<polygon id="SVGID_51_" points="-4.2,0.2 -4.2,66.2 -4.2,92.4 -4.2,200.8 -4.2,625.5 193,625.5 207.2,625.5 287.9,625.5 
					333.3,625.5 373.1,625.5 387.3,625.5 402.5,625.5 639.6,625.5 864.8,625.5 997.3,625.5 997.3,0.2 				"/>
			</defs>
			<clipPath id="SVGID_52_">
				<use xlink:href="#SVGID_51_"  style="overflow:visible;"/>
			</clipPath>
			<path class="st29" d="M63.3,477.1c-0.3-3.3-1.8-6.5-5.3-7.4c-3.3-0.9-6.4,1.2-7.8,4c-2.7,5.1-2,13.4,4.5,15.2
				c4.8,1.4,8.3-2.8,8.5-7.2c0-0.6,0-1.2,0-1.8C63.4,479,63.4,478,63.3,477.1z"/>
		</g>
		<g>
			<defs>
				<polygon id="SVGID_53_" points="-4.2,0.2 -4.2,66.2 -4.2,92.4 -4.2,200.8 -4.2,625.5 193,625.5 207.2,625.5 287.9,625.5 
					333.3,625.5 373.1,625.5 387.3,625.5 402.5,625.5 639.6,625.5 864.8,625.5 997.3,625.5 997.3,0.2 				"/>
			</defs>
			<clipPath id="SVGID_54_">
				<use xlink:href="#SVGID_53_"  style="overflow:visible;"/>
			</clipPath>
			<g class="st30">
				<path class="st31" d="M-68.1,430.5c9.7-9.2,22.8-16.9,35.9-14.1c7.2,1.6,13.9,6.3,21.3,5.8c3-0.2,5.9-1.3,8.6-2.6
					c3.1-1.5,6.2-3.2,8.6-5.6c2.8-2.9,4.6-6.5,6.8-9.9c4.2-6.6,10-12.2,16.8-16.3c2.3-1.4,4.8-2.6,7.5-2.9c3.3-0.3,6.6,0.9,9.8,1.5
					c11.5,2.2,23.5-3.2,31.6-11.6c2-2.1,3.8-4.3,5.5-6.6c0.8-3.9,1.3-7.9,0.9-11.9c-0.8-9.7-6-18.2-12-25.2
					c-8.5-10-19.5-18.2-32.1-19.4c-12.5-1.2-26.4,6.3-30.8,19.5c-0.7,2-1.3,4.4-3.1,5.4c-2.2,1.2-4.6-0.5-6.6-1.9
					c-23.3-17.2-57.5-9.4-78.3,12.7c-17.1,18.2-34,56.1-29.7,82.9c1.7,10.5,14.5,13.3,24.9,14.9C-77.6,440.3-73,435.2-68.1,430.5z"
					/>
				<path class="st32" d="M78.8,374.9c-8.2,8.4-20.1,13.7-31.6,11.6c-3.3-0.6-6.5-1.8-9.8-1.5c-2.7,0.3-5.2,1.5-7.5,2.9
					c-6.7,4-12.5,9.6-16.8,16.3c-2.2,3.4-4,7-6.8,9.9c-2.4,2.5-5.5,4.2-8.6,5.6c-2.7,1.3-5.6,2.3-8.6,2.6c-7.4,0.5-14-4.2-21.3-5.8
					c-13.1-2.8-26.1,4.9-35.9,14.1c-5,4.7-9.5,9.9-14.4,14.7c2.7,0.4,5.3,0.8,7.4,1.1c15.2,2.7,30.9,3,46.3,0.8
					c22.3-3.1,43.9-11.2,65.1-20c10.5-4.4,21.4-9.1,29.4-17.9c7.6-8.3,12-19.4,15.6-30.5c1.1-3.4,2.1-6.9,2.9-10.4
					C82.6,370.7,80.8,372.9,78.8,374.9z"/>
			</g>
		</g>
		<g>
			<defs>
				<polygon id="SVGID_55_" points="-4.2,0.2 -4.2,66.2 -4.2,92.4 -4.2,200.8 -4.2,625.5 193,625.5 207.2,625.5 287.9,625.5 
					333.3,625.5 373.1,625.5 387.3,625.5 402.5,625.5 639.6,625.5 864.8,625.5 997.3,625.5 997.3,0.2 				"/>
			</defs>
			<clipPath id="SVGID_56_">
				<use xlink:href="#SVGID_55_"  style="overflow:visible;"/>
			</clipPath>
			<path class="st33" d="M913.1,499.3c-0.3-0.9-0.6-1.9-1.3-2.6s-1.6-1.3-2.6-1.1c-1.9,0.4-2.3,2.8-2.3,4.7c0,1.5,0,3.1-0.1,4.6
				c0,2.7-0.1,5.5,0.8,8c1.1,3.2,6.3,8.3,7.8,3.3C916.8,512,914.4,503.4,913.1,499.3z"/>
		</g>
		<g>
			<defs>
				<polygon id="SVGID_57_" points="-4.2,0.2 -4.2,66.2 -4.2,92.4 -4.2,200.8 -4.2,625.5 193,625.5 207.2,625.5 287.9,625.5 
					333.3,625.5 373.1,625.5 387.3,625.5 402.5,625.5 639.6,625.5 864.8,625.5 997.3,625.5 997.3,0.2 				"/>
			</defs>
			<clipPath id="SVGID_58_">
				<use xlink:href="#SVGID_57_"  style="overflow:visible;"/>
			</clipPath>
			<g class="st34">
				<path class="st32" d="M1074,415.2c-5.6-6.5-9.9-14.7-17.7-18.2c-12.1-5.3-25.5,3.3-35.7,11.7c-10.2,8.4-23,17.6-35.4,13.2
					c-4.9-1.7-8.8-5.3-13.5-7.4c-12-5.5-28,1-32.8,13.3c-2.4,6.1-2.2,12.9-3.2,19.3c-1,6.5-3.7,13.4-9.6,16.3
					c-4.7,2.3-10.1,1.4-14.7-1.4c1.1,6.9,2.7,13.7,5.2,20.2c2.5,6.6,8,23,15.1,15.5c5.6-5.9,5.9-17.1,8.5-24.6
					c4.8-14.2,17.1-25.7,31.6-29.7c9.7-2.6,20.1-2,30-4c10.6-2.1,20.6-7.3,28.5-14.7c8.4,26.3,23,50.7,42.3,70.5
					c4.3,4.4,11.7,3.1,14.4-2.4c7.4-15.5,10.5-33.1,8.8-50.2c-0.5-4.7-1.3-9.4-1.9-14.1C1086.3,425.8,1079.3,421.3,1074,415.2z"/>
				<path class="st31" d="M1093.1,413.8c0.6-19-11.9-35.8-30.4-40.3c-19.8-4.8-39.5-12.6-59.8-13.7c-13.8-0.7-27.6,1.7-41.2,4.1
					c-11.9,2.1-24.4,4.5-33.7,12.2c-13.9,11.5-16.9,31.2-17.8,49.2c-0.6,12.1-0.6,24.5,1.2,36.6c4.5,2.7,10,3.7,14.7,1.4
					c5.9-2.9,8.6-9.8,9.6-16.3c1-6.5,0.8-13.2,3.2-19.3c4.8-12.3,20.8-18.8,32.8-13.3c4.7,2.1,8.6,5.7,13.5,7.4
					c12.5,4.4,25.2-4.8,35.4-13.2c10.2-8.4,23.6-17.1,35.7-11.7c7.8,3.5,12.1,11.7,17.7,18.2c5.3,6.1,12.2,10.7,19.8,13.5
					c-0.2-1.2-0.3-2.4-0.4-3.6C1093.1,421.3,1093,417.6,1093.1,413.8z"/>
			</g>
		</g>
	</g>
	<g>
		<g>
			<path class="st4" d="M-39.5,494.1c1.9,0,1.9-3,0-3C-41.5,491.1-41.5,494.1-39.5,494.1L-39.5,494.1z"/>
		</g>
	</g>
</g>
<g id="text">
</g>
</svg>
